<svg xmlns="http://www.w3.org/2000/svg" width="20" height="24" fill="none" viewBox="0 0 20 24"><path fill="#fff" d="M3.8 18.566c-2.477 5.491 2.799 6.868 6.69 3.655 1.144 3.603 5.436.915 6.975-1.876 3.393-6.153 2.023-12.43 1.671-13.725-2.412-8.83-14.465-8.839-16.54.045-.485 1.554-.493 3.323-.768 5.158-.138.926-.235 1.517-.594 2.49-.206.56-.489 1.057-.934 1.895-.692 1.302-.4 3.813 3.164 2.51v.002z"/><path fill="#000" d="M10.961 10.441c-.989 0-1.137-1.182-1.137-1.887 0-.636.114-1.142.33-1.462a.92.92 0 0 1 .807-.425c.346 0 .643.145.852.432.238.327.364.83.364 1.455 0 1.182-.454 1.887-1.215 1.887M15.032 10.441c-.99 0-1.137-1.182-1.137-1.887 0-.636.114-1.142.33-1.462a.92.92 0 0 1 .807-.425c.345 0 .642.145.851.432.238.327.364.83.364 1.455 0 1.182-.454 1.887-1.215 1.887"/></svg>